<svg xmlns="http://www.w3.org/2000/svg" viewBox="0 0 48 48" width="48" height="48"><g class="nc-icon-wrapper"><circle cx="36" cy="7" r="5" fill="#477b85"></circle><path d="M10,16a8,8,0,1,1,8-8A8.009,8.009,0,0,1,10,16Z" fill="#efd358"></path><path d="M20.961,32.925h0A6.407,6.407,0,0,1,20,32.158V36.25L13,41.5a2.5,2.5,0,1,0,3,4l8-6a2.5,2.5,0,0,0,1-2V35.6C22.055,33.653,21.219,33.1,20.961,32.925Z" fill="#155163"></path><path d="M32.655,12.55a4.469,4.469,0,0,0-3.341-.384L9.43,18.083a2,2,0,1,0,1.14,3.834l14.145-4.209L20.55,25.345a4.484,4.484,0,0,0,1.5,5.905c.04.03,6.948,4.6,6.948,4.6V43.5a2.5,2.5,0,0,0,5,0v-9a2.5,2.5,0,0,0-1.124-2.088l-4.362-2.874L34.45,18.655A4.5,4.5,0,0,0,32.655,12.55Z" fill="#477b85"></path><path d="M10,12a1,1,0,0,1-.707-.293l-3-3a1,1,0,0,1,0-1.414l3-3a1,1,0,0,1,1.414,0l3,3a1,1,0,0,1,0,1.414l-3,3A1,1,0,0,1,10,12Z" fill="#d8bc48"></path></g></svg>